<svg xmlns="http://www.w3.org/2000/svg" id="Calque_1" data-name="Calque 1" viewBox="0 0 512 273.7"><defs><style>      .cls-1 {        fill: #fff;        stroke-width: 0px;      }    </style></defs><path class="cls-1" d="M363.7,171.6c-5.9-7-11.7-13.9-17.8-21.1-5.1,4.8-10,9.5-15,14.2-1.3,1.3-2.8,2.4-4.1,3.7-2.9,2.9-5.8,5.9-8.6,8.9-3.7,3.9-7.3,7.9-10.9,11.9-2.6,2.8-5.3,5.6-7.9,8.4-.9,1-2,1.3-3.2,1.1-1.4-.2-2.8-.5-4.2-.6-.5,0-1,0-1.4.2-.7-.8-1.3-1.7-2-2.6,0,0-.2.2-.3.2.3.8.6,1.7.9,2.5-2.8.9-5.4,1.1-8.3.8-3.2-.4-6.4-.4-9.6-.7-.4,0-.8-.5-1.1-.6-1.1.2-2.1.4-3,.4h-17.8c-.9,0-1.7-.4-2.8.4-.8.5-2.5-.3-4.2-.5,0,0-.3.4-.7.9-.8-.6-1.5-1.1-2.2-1.6,0,0-.2.3-.3.4l1,1c0,.2-.2.3-.2.3-2.7,0-5.4,0-8.1,0-.4,0-.7-.5-1-.8s-.6-.6-1.2-1c0,.8,0,1.2-.2,1.8-1.1-2-4.5-2.5-7.6-1.5v-.5c-.9,0-1.8,0-2.6-.4-2.3-.9-4.2.2-6.2.9-.3,0-.8-.2-1.2-.4-1.1-.3-2.1-.8-3.2-.9-5.8-.2-11.5-.3-17.3-.5-6.6-.3-13.3-.6-20.1-1-.2-.3-.5-.8-.9-1.4-1.3,2.4-2.4,2.7-5.5,1.8-1.1-.3-2.2-.5-3.3-.5-1.9,0-2.8-1.2-1.5-2.4,2.5-2.2,3.1-6.1,6.5-7.5.5-.2.8-.9,1.1-1.4,2-3.9,4.3-7.5,7.5-10.5,4.8-4.4,7.9-9.9,11.4-15.3,1.7-2.6,3.4-5.2,5.9-7.4,3.5-3.2,6.8-6.7,9.3-10.9.7-1.2,3-1.6,4.7-2.2.9-.3,1.8-.6,2.8-.6s2.3,0,3.4,0c1.1,0,2.2.3,3.4.5,2.1.3,4-.7,6.3,0,2.2.8,4.8.4,7.3.4h15.7c5.9,0,11.9,0,17.8.2,3.9,0,7.9.7,11.7,0,3.8-.7,7,1.7,10.6,1,1.8-.4,3.6-.6,5.4-.8.4,0,1.1.2,1.2.4.6,1.2,1.6,1,2.6,1,2.5.2,5,.5,7.5.6,1,0,2-.2,3,0,4.2.3,8.3.8,12.5.9,6.7.2,13.4,0,20.2,0s2.6.3,3.9.3c2.6,0,5.2-.2,7.7,0,1.4,0,2.9.7,4.1,1.5,3.4,2.1,6.2,5,8.6,8.2,2.1,2.8,4.4,5.5,6.5,8.3,2.1,2.7,4.3,5.2,6.2,8,2.6,3.7,4.9,7.5,7.3,11.3,1.4,2.2,2.9,4.3,3.9,6.7,1.3,3.2,3.5,5.4,5.7,7.9,1.6,1.8,2.5,4.2,3.4,6.4.8,1.8-1.5,2.4-2.1,3.7-.2.4-1.5.4-2.3.2-3.4-.7-5.3-3.3-6.7-6-1.3-2.6-3.2-4.7-5-7-2.8-3.6-5.4-7.3-8.3-10.8-1.8-2.3-4-4.3-5.9-6.6-.5-.6-.8-1.4-1.2-2.1v.7ZM255,184.2c-1-.9-1.6-1.4-2.2-2,0,.5-.2,1.1-.4,1.6-.5-.3-1.1-.8-2-1.3.4,3-3.2,1.5-3.6,3.7,3.1,0,6.2.9,8.8-1.6v-.5c-.5,0-.9,0-.8,0h.2ZM388.6,193.2c-.2,0-.4.2-.5.3.5.8.9,1.6,1.5,2.3,1.2,1.4,2.5,2.8,1.7,5-.2.6,0,1.4.2,2.4,1.1-1,2.9-1.2,2.2-3.2-.9-2.9-2.7-5-5.1-6.7h0ZM239.4,179.5c-1.6.3-3.1.5-4.8.8.3.8.9,1.2,1.7,1.3,1.7,0,2.3,1.2,1.6,2.7,0,.3,0,.6,0,1.2,1.9-1.2,3.5-2.1,5.1-3.1,0-.2-.2-.4-.3-.6-.6.2-1.3.5-1.9.5s-1.3-.5-2-.8c.2-.5.4-.9.8-1.9h0ZM231.5,174.1c.5.6,1,1.5,1.2,1.4.8-.2,1.7-.6,2.3-1.2,1.2-1.4,2.1-2.9,3.1-4.5.3-.5.2-1.2.2-1.9-1.5,1.4-2.8,2.5-4.1,3.6-.2,0-.3.5-.3.6.7,2.1-1,1.6-2.4,2h0ZM354.2,153.9l.5-.4c-.9-1.9-1.8-3.8-2.8-5.7-.4-.7-1.1-1.4-1.8-.5-.3.4-.2,1.4,0,1.9.9,1.4,1.9,2.7,2.9,4,.3.3.7.5,1.1.7h0ZM270,152.3c-.2.8-.4,1.6-.6,2.3,2.5,0,5.7-2,6.7-3.9-2.4-1.1-3.5.8-4.7,2.2-.5-.2-.9-.4-1.4-.6ZM197,180.1v.4c.4,0,1,0,1.3-.4,1.5-1.5,2.9-3,4.2-4.6.4-.5.7-1.2,1.1-1.8-.2,0-.4-.3-.6-.4-.9,1.2-1.9,2.3-2.8,3.6-.8,1.3-1.7,2.3-3.4,2.3s-2,.3-2.3,2.1c1-.5,1.7-.9,2.3-1.2h.2ZM271.5,192.4v-.8c-3.4-.7-6.8.3-10.2.2v.6h10.2ZM198.4,190.6v-.9c-2.7,0-5.5-.3-8.2-.4v.7c2.7.2,5.5.5,8.2.7h0ZM220.6,149.9c1.3.3,2.2.5,3.5.7,0-.8.3-2.1,0-2.3-1.3-.7-2.3.3-3.5,1.6ZM210,190.6v-.5h-7c2.3,1.3,4.7.7,7,.5ZM254.9,176.4c1.7-1,3.1-1.8,4.6-2.7-1.7-1-4.2.4-4.6,2.7ZM277.6,173.2c-2.1-.8-3.2.7-5.1,1.3,1.8.7,3.9,0,5.1-1.3ZM214.2,180.5c1.2.7,2.1.2,2.4-.7.3-.8,0-1.8,0-2.7h-.6c-.6,1.1-1.2,2.1-1.8,3.3h0ZM175.5,178.6c.9-.6,2.3-1.7,4-2.9-2,0-3.8,1.8-4,2.9ZM187.8,164.7c1.8-1.1,3.2-2.1,3.4-4.6-1.3,1.4-2.2,2.4-3.2,3.4,0,0-.3-.2-.4-.3,0,.4,0,.8.2,1.5h0ZM284.9,172.5c1.2-1.1,2.1-2,3.1-2.8,0,0-.2-.3-.3-.4-.7,0-1.3.2-2.1.2.4,1.3-.3,1.6-1.6,1.2.3.7.5,1.1.8,1.8h0ZM291.6,179.2c-.2-.7-.4-1.1-.5-1.5s-.2-.8-.3-1.1h-.5c-.4.8-.7,1.6-1.2,2.7h2.5ZM240.8,175.9c1.7-.3,2.8-1.1,3.6-2.5,0-.2,0-.7,0-.9h-.8c-.9,1-1.7,2.1-2.7,3.3h0ZM288.4,186.8v.6c.6.4,1.2.9,2.3,1.7v-2.4h-2.3ZM293.8,163.5c-.9.3-1.8.6-2.6,1.1-.3.2-.3,1-.5,1.5.4,0,.9.3,1.1,0,.7-.8,1.4-1.7,2-2.6ZM198.5,194.7v.7c1.7-.3,3.4,1,5.1.2v-.6c-1.7,0-3.4-.2-5.1-.3h0ZM177.9,194.1c-1.6-1.4-2.4-1.4-3.5,0h3.5ZM266.3,185.6c0-.2,0-.3,0-.5-1.4.3-2.9.7-4.3,1,0,.2,0,.5.2.7,1.4-.4,2.8-.8,4.2-1.3h0ZM264,153.6c0-.2-.3-.3-.4-.5-.8.8-1.6,1.6-2.3,2.4.2.2.4.4.6.6.7-.8,1.4-1.7,2.1-2.5h0ZM271.2,196.8c.7,0,1.3.2,1.8.3,0,0,0-.2,0-.3-.3-.2-.7-.4-1-.6.3-.4.5-.6.9-1.1h-1.8v1.6h0ZM334.9,148.2c0-.3,0-.5,0-.8-.8,0-1.5,0-2.3.2,0,.3.2.9.3.9.7,0,1.4-.2,2.1-.3h0Z"></path><path class="cls-1" d="M289.1,48.8c1.2-1.9,1.2-2.4-.6-3v1.6c-.6-.6-1-1.1-1.8-1.9-1.8,1.5-3.7,3.1-5.6,4.6-2.2,1.8-4.5,3.5-6.8,5.2-2.8,2.1-5.6,4.1-8.5,6.1-1.4,1-3,1.7-4.3,2.7-1.2.9-2.2,2-3.4,2.9-1.3,1-2.8,1.9-4,2.9-1.9,1.6-3.8,3.3-5.7,5-2.9,2.5-4,2.5-7.5,1s-5.4-4.5-7.5-7.3c-.7-1-1.4-2-2.4-2.7-3.2-2.1-5.7-4.9-8.2-7.7-4.1-4.5-8.1-9-12.3-13.5-1.7-1.8-3.9-3.3-5.5-5.2-2-2.4-4.4-4.4-6.5-6.7-.7-.8-1.8-1.6-1-3.1,0-.2-.2-.6-.4-1.3-.3.7-.5,1.1-.6,1.4-6.8-6.4-13.5-12.8-20.3-19.2-.6,0-1.4,0-2.4,0-.3,3.4-3.3,4.2-5.9,5.6-4.6,2.5-9.2,5.1-13.8,7.6-1,.5-2.2.5-3.3.9-.6.2-1.1.7-1.5,1.1s-.5,1.1-1,1.3c-1.8.9-3.6,1.7-5.5,2.6-.4-.5-.7-.9-1.2-1.5-1,4.2-4.9,5.4-7.9,7.2-3.1,1.9-6.3,3.4-9,5.9-1.3,1.2-3.2,1.8-4.7,2.8-2.5,1.8-4.9,3.8-7.5,5.5-3.1,2-6.3,3.9-9.6,5.7-2,1.1-4.2,1.8-6,3.1-1.6,1.1-2.9,2.6-4.3,4-3.4,3.5-7.3,6.4-11.6,8.7-5.1,2.7-9.9,5.9-14.9,8.7-2.6,1.5-5.4,2.8-8.1,4.1-2.3,1.1-4.7,2.2-6.9,3.4-3.5,1.8-7.1,3.5-10.5,5.5-4.9,2.8-9.6,5.9-14.4,8.9-1.9,1.2-3.8,2.5-5.7,3.7,0,0-.3.3-.5.2-3.5-.4-6.1,1.8-9,3.2-1.6.8-2.8.8-3.6-1.3-.6,1-.9,1.8-1.5,2.5-.8.9-1.5.5-1.5-.5s.3-2.3.8-3.1c2.5-4.1,6.5-6.5,10.5-8.8,4.5-2.5,9-5,13.5-7.7,5.2-3.1,10.3-6.2,15.4-9.4,6.5-4.1,13-8.2,19.5-12.3,8.7-5.5,17.7-10.7,26.9-15.4,5.7-2.9,11.2-6.2,16.8-9.6,6.4-3.9,12.7-7.9,19-11.9.8-.5,1.4-1.6,2.2-2.1,2.2-1.5,4.5-3,6.8-4.3,5.7-3.2,11.1-6.8,16.3-10.9,1.2-1,2.7-1.5,4-2.4,1.7-1.2,3.4-2.5,5.1-3.7,1.2-.8,2.4-1.6,3.5-2.4,2-1.4,3.9-2.8,6-4.1.5-.3,1.5-.3,2.1,0,1.2.6,2.1.4,3.3-.2,1.5-.5,3.3-1.1,4.8-1.1s1.9,1.3,2.6,2.2c2.1,2.7,4,5.6,6.2,8.3,2.9,3.5,5.9,7,9,10.4,1.7,1.9,3.6,3.7,5.3,5.6,3,3.6,5.8,7.3,8.8,10.9,1.1,1.3,2.4,2.4,3.4,3.7,2.1,2.5,4.1,5,6.2,7.5,3.4,3.9,6.6,8.1,10.5,11.6,6,5.5,11,4.5,18,.7,4.2-2.3,8.2-5,12.2-7.6,3.1-2,6-4.3,9.1-6.2,5.3-3.4,10.7-6.6,16.2-9.8,2.5-1.5,4.5-.6,5.5,2.2.6,1.8,1.2,3.5,1.8,5.3.8,2.7,2.3,4.9,4.1,7.1,2.1,2.6,3.6,5.6,5.3,8.5,1.5,2.7,2.5,3.1,5.1,1.4,2.2-1.4,4.3-3,6.3-4.7,2.7-2.2,5.7-3.3,9-3.7.5,0,1.4.5,1.7,1,1.4,2.1,2.5,4.3,3.9,6.4.8,1.2,2,2.2,2.9,3.4,2.4,3.1,4.6,6.5,7.2,9.4,3.2,3.6,7,6.7,10.3,10.2,2.8,2.8,5.2,5.9,7.9,8.8,1.6,1.7,3.6,3.2,5.2,5,5.1,5.7,10.1,11.4,15,17.2,2.7,3.2,5.1,6.7,7.7,10,.2.3.4.6.7.9,3.4,3.8,6.6,7.7,10.1,11.3,2.9,2.9,6.1,5.7,9.4,8.2,1.3,1,3.3,1.2,5,1.7.2,0,.5,0,.7.3,2,2.2,3.5.4,4.9-.8,1-.8,2-1.8,3-2.7,5.1-4.4,10.5-8.7,15.4-13.3,4.3-4,9-7.6,14-10.8,2.1-1.3,4.4-2.5,6.5-3.9s4.1-3.1,6.2-4.5c1.9-1.3,4-2.4,6-3.6,4.1-2.5,8.3-5,12.4-7.5,1.2-.7,2.5-1.4,3.8-2.1,4.2-2.5,8.5-5,12.7-7.4.3,0,.6-.4.6-.6.7-3.1,4-2.9,5.8-4.7.4-.4,2-.4,2.4,0,.5.6.3,1.7.5,2.9,0,0,.4,0,.8.2,1.7.7,2.1,1.6.8,2.9-1.2,1.2-2.7,2.2-4.2,3.2-2.5,1.7-4.8,3.6-7.5,4.7-2.8,1.1-5,3.2-7.7,4.4-2.1,1-3.8,2.8-5.8,4-1.8,1.1-3.8,1.9-5.7,2.9-2.1,1.2-4.1,2.4-6.1,3.7-4.3,2.8-8.5,5.6-12.7,8.5-4.3,2.9-8.2,6.2-11.7,10.1-1.8,2.1-4.4,3.5-6.4,5.4-2.7,2.5-5,5.4-7.8,7.8-4.2,3.6-7.5,8.2-12.5,10.8-1.2.6-2.4,1.3-3.7,1.9-.3.2-.8.3-1,.2-1.8-1-3.7-2-5.4-3.1-.9-.6-1.6-1.5-2.4-2.3-2.7-2.3-5.6-4.5-8.2-7-3.4-3.3-6.7-6.7-9.8-10.3-3.5-4-6.7-8.3-10.2-12.3-3.3-3.7-6.8-7.1-10.1-10.8-1.7-1.8-3.2-3.9-4.7-5.8-2.1-2.6-4.1-5.2-6.2-7.7-2.5-2.9-5.1-5.7-7.7-8.6-2.2-2.4-4.3-5-6.6-7.3-3.6-3.7-7.4-7.2-11.1-10.8-2.5-2.4-4.9-4.8-7.5-6.9-1.1-.9-2.3-1.3-2.8-2.9-.4-1.2-1.7-.3-2,.3-1.6,3.8-5.4,5.2-8.3,7.5-1.3,1-2.4,2.1-3.9,2.6-1.8.7-3.3.3-4.6-.9-.5-.4-.9-1-1.2-1.6-2.1-3.5-4.2-7.1-6.3-10.6-1.5-2.6-3-5.2-4.6-7.7-.9-1.4-2.1-2.5-3.3-3.9h-.2ZM244.1,72.7c0,.2.2.3.3.5,4.6-2.5,8.8-5.4,12.7-8.9,0-.2-.2-.3-.3-.5-4.2,3-8.4,5.9-12.7,8.9h0ZM58.2,79.6c3.3-.5,13.4-7,14.3-9-4.6,2.9-9.3,5.8-14.3,9ZM73.8,70.3c2.1-.4,3.9-.8,4.9-2.9-1.4,0-4.3,1.6-4.9,2.9ZM82,64.2c-.6.9-1,1.6-1.5,2.2,0,0,.2.2.3.4,1-.7,2.1-1.4,3.4-2.3-1.1,0-1.7-.2-2.3-.3h0ZM190.1,17.7v.4c.8-.2,1.5-.3,2.2-.5-.3-.5-.5-1.1-.7-1.4-.6.6-1,1.1-1.4,1.5h0Z"></path><g><path class="cls-1" d="M167.8,207.2v1.4c-1.1-.3-2.2-.8-3.4-.9-2-.2-4,0-5.9-.3-3.6-.3-7.2-.8-10.8-1-2.6,0-5.2.2-7.7,0-6.1-.3-12.1-.6-18.2-1-.8,0-1.5-.4-2.3-.6-.6-.2-1.1-.5-1.7-.6-4.3-.3-8.6-.5-12.9-.8-.9,0-1.8-.6-2.7-.7-.7,0-1.5.3-2.2.2-.5,0-1-.4-1.7-.8-1.1,2.3-3.4.7-5.3.8-5.5.4-11,.4-16.5.6-3.3,0-6.6.8-9.8.5-2.9-.3-5.5,1.1-8.4,1.1-7.2,0-14.4.4-21.6.7-2,0-4,.4-6.1.5-1.7,0-3.3-.5-4.9.8-.5.4-1.6,0-2.5,0-4.7.2-9.3.5-14,.6-2.2,0-4.5,0-6.7,0-.5,0-1,0-1.4-.2C.8,207.1.4,206.6,0,206.1c.4-.5.8-1.3,1.3-1.4,2.3-.4,4.7-.6,7-.9.3,0,.6,0,1-.5-.7-.4-1.3-.8-2.6-1.5,1.5-.6,2.6-1.2,3.7-1.3,5.4-.6,10.8-1,16.2-1.7,1.9-.3,4.1-.2,5.7-2,.3-.3,1-.5,1.3-.3,2.1,1.4,4.4.4,6.5.4,4.5,0,9,0,13.5-.3,6.4-.2,12.9-.4,19.3-.7h.7c1.1-.2,3-.3,3-.6.3-1.7,0-3.6,0-5.4,0-.3-1.1-.7-1.6-.6-1.1,0-1.7,0-2.3-1.2-1.4-2.4-4.9-3.1-7.4-2.1-.9.4-2.1,0-3.2.2-.8.2-1.7.5-2.4,1.1-1.8,1.4-3.5,1.4-4.8-.4-.3-.4-.6-1-.5-1.4.6-2.4,1-4.9,1.9-7.2,1.3-3.5,3-6.7,4.4-10.2.8-2.1.8-4.4-.8-6.2-1-1.1-1.2-2.2-.7-3.5,1.6-4.1,3.4-8.2,4.6-12.4,1-3.4,2.4-6.5,4.6-9.2.4-.5.8-.9,1.3-1.4,2.5-2.7,5.3-5.1,7.5-8,1.5-1.9,2.3-4.5,3.5-6.8.6-1.2,1.3-2.5,2.3-3.3,1.3-1.1,2.5-2.1,3.1-3.8.5-1.2,1.4-2.2,2.3-3.2.8-1.1,1.7-2.3,2.7-3.1.8-.6,1.9-.9,2.9-.9s1.8,1,1.7,2.3c-.2,1.9-.6,3.8-.8,5.7,0,1.1,0,2.3,0,3.4.2,0,.4-.2.5-.4.9.4,2.1.6,2.5,1.3.9,1.6,2.4,3.3,1.1,5.5-.9,1.4-.9,2.5.4,3.7.7.6,1.1,1.7,1.6,2.5.9,1.7,1.7,3.4,2.7,5,1,1.5.9,2.9,0,4.1-.9,1.1-.9,2.1-.5,3.2.2.8.5,1.6.8,2.4.2.6.5,1.7.8,1.7.7,0,1.5-.3,2.1-.8,2.2-2.1,4-4.6,6.4-6.3,3-2,3.8-4.4,3.2-7.9,0-.7.8-2.1,1.5-2.4,1-.5,2.4-.5,3,1.1.2.6.6,1.2,1.2,2.3.3-1,.4-1.3.4-1.7,0-2.3,1.3-3.5,3.4-2.9.7.2,1.5,0,2.3,0,.8.2,2,.3,2.3.9.3.5-.2,1.8-.7,2.4-.9,1.2-1,2.1.4,2.7,1.4.6,1.7,1.5,1.6,3-.4,5.8,1.6,11,4,15.9,1.1,2.4,2.9,4.3,4.4,6.5,2.3,3.4,4.5,6.8,4.9,11.1,0,.7-.4,1.5-.5,2.2-.8-.3-1.8-.3-2.4-.9-2-2.2-3.7-4.6-5.6-6.7-.4-.4-1.2-.4-1.9-.3-.2,0-.5,1-.3,1.3.5,1,1,2,1.8,2.7,2.7,2.5,3.7,6,5.3,9.2.6,1.2,1.3,2.2,1.8,3.4.4.8.7,1.8.6,2.6,0,.4-1.1.7-1.7,1.1-.8.6-1.5,1.3-2.4,2.1-.4-.7-.6-1.1-1-1.9-.3.7-.5,1.2-.7,1.9-1.2-1.3-2.3-2-4.1-1.7-.8.2-1.9-1.1-2.9-1.5s-1.2,0-1.8,0c0,.6-.2,1.5.2,1.9,1,1.2,2.2,2.2,3.2,3.4.5.6,1,1.7.8,2.4-.4,1.1-1.3,2-2.6,1.4-1-.4-2-1-3-1.4-1.8-.7-3.2.3-3.4,2.4,0,1-.2,2-.3,3.4,1.8.2,3.5.3,5.3.5,6.4.7,12.8,1.3,19.2,2.1,4.9.6,9.7,1.5,14.6,2.1,2.9.4,5.9.5,8.8,1,5.1.9,10.1,2.2,15.2,3.2,4.5.9,9.1,1.7,13.6,2.7,3.5.7,6.9,1.8,10.4,2.3,7.2,1,14.2,2.9,21.1,5.1,4.2,1.3,8.4,2.7,12.5,4.3,2.8,1.1,5.3,3.1,8.2,3.9,5.3,1.4,9.1,5.3,13.4,8.3,1.9,1.3,4,2.4,5.9,3.6,2.5,1.6,4.9,3.2,7.3,4.9.4.2.5.9.7,1.3-.4.2-.9.6-1.2.6-1.1-.3-2.3-.7-3.4-1.2-1.4-.6-2.6-1.6-4.2-.3-.3.2-1.1-.2-1.6-.5-3.7-2.3-7.3-4.7-11-6.9-1.6-.9-3.4-1.1-5.1-1.7-3.5-1.2-7.1-2.5-10.6-3.7-4.2-1.4-8.5-2.8-12.7-4.1s-8.4-2.7-12.6-3.9c-7.1-2-14.2-3.9-21.3-5.7-2.9-.7-5.7-1.5-8.6-1.8-4.2-.5-8.3-1.5-12.2-3-1.4-.5-3-.7-4.5-.8-1.7,0-2.6-1.1-3.2-2.9,0,0-.3.2-.4.4v-.2ZM117.6,188.6c-2.2-.9-3.8-.3-5.3,1.3-1.1,1.3-2.2,2.6-3.4,3.7-.4.4-1.5.9-1.7.7-1-1-3.2,0-3.3-2.5,0-.2-.5-.3-.7-.5-2.2-1.1-2.4-1.8-1.2-4,.2-.4.3-.8.7-1.6-1.3.5-2.2.9-3.3,1.3.3.7.5,1.2.7,1.8.5,1.4.6,3-.6,3.9-1.3.8-2.7.4-3.7-.9-.7-.9-1.3-1.9-1.7-2.9-.7-2-2.2-2.5-3.9-2.5s-2.5,0-3.7,0c-.5,0-1.3.9-1.2,1.1.9,2.3,0,4.1-1,6-.2.5-.3,1.1-.6,2,11.5.4,22.8.7,34.3,1.1,0-2.8-.3-5.4-.4-8h0ZM118,164c-.3-.2-.5-.5-.8-.7-.3.6-.6,1.3-1,1.8-.7.9-1.3,2-2.2,2.7-1.2.9-1.9,1.8-1.8,3.4,0,.5-.4,1-.7,1.4-1.6,1.8-3.3,3.5-4.9,5.3-.3.4-.4,1-.7,1.4,1.2-.6,1.9-1.7,3-2.2,2.7-1.5,4-4,4.9-6.8.3-.9,1.1-1.9,1.9-2.3,1.7-.8,2.2-2.2,2.4-3.9h0ZM36.6,201.3v.9c5.4-.3,10.8-.6,16.2-.9-5.5-1.2-10.9-.9-16.3,0h0ZM90.8,168c.2-.7.7-1.6.5-2-.9-1.6-2.1-3-3.3-4.6-.6,3,1.2,4.6,2.9,6.6h0ZM98.2,179.7c-1.1-1.9-2.1-3.4-3.1-5-.5,4,.5,5.6,3.1,5ZM234.8,222.7c-.8-2.7-4.2-3.9-6.4-2,2.2.7,4.3,1.4,6.4,2ZM25.2,202.2c3.2,2,6.1,0,9.1,0v-.6c-3,.2-6.1.4-9.1.6ZM61.6,179.3c1.2-1.7,2.5-3.5,4-5.5-3.1.6-4.5,2.9-4,5.5ZM101.7,162.3c0,0-.3-.2-.4-.3-1,.4-2,.8-3.2,1.4.4,1,.8,1.9,1.4,3.3,1-1.9,1.6-3.1,2.3-4.4h0ZM96.7,157.2c1-1.8,0-5.7-2-6.7.7,2.4,1.3,4.4,2,6.7ZM84.3,171.2c0,2.1-.3,3.8-.4,5.4,2-.4,2.1-1.6.4-5.4ZM121.3,152.3v-4.6c-1.6,1.6-1.7,2.3,0,4.6ZM78.1,173.3c0,0-.3,0-.4,0-.3,2.6-2.4,4.7-1.6,7.7.7-2.5,1.4-5,2.1-7.5h0ZM12.2,203.2v.3h5.1v-.7c-1.7,0-3.4.3-5.1.4ZM117.7,185.3c0,.2-.2.4-.3.5.9.6,1.8,1.2,2.8,1.8,0,0,.5-.2.5-.4,0-.3,0-.7-.2-.8-.9-.4-1.8-.8-2.7-1.2h0ZM78.9,159.8c1.9-1.1,2-1.5.9-2.8-.3,1-.6,1.9-.9,2.8Z"></path><path class="cls-1" d="M488.1,183.5c-.4.5-.7,1.1-1.2,1.5-2.6,2.3-5.2,4.6-7.8,6.9-1.1,1-2.1,2.4-3.4,2.9-1.8.6-3.8.5-5.7.6-.6,0-1.2-.4-1.9-.6-.3,2.9-.6,3.2-3.3,2.7-1.2-.2-1.6,0-1.7,1.4,0,1.6-.4,3.2-.8,4.8,0,.6-.7,1.5-1,1.4-.6,0-1.3-.6-1.7-1.1-.3-.4-.2-1.1-.2-1.7,0-1.5.2-3-1.2-4-.4-.3-.3-1.3-.5-2,0-.4-.3-1-.6-1.1-.4,0-.8.3-1.3.5,0,0,0,0,0,.2-.9,1.2-1.9,2.4-3.5,1.2-1.1-.8-1-2.7,0-4.5,1.5-2.8,3.1-5.5,4.6-8.3.2-.3,0-.7.2-1-1.2.2-2.3.7-3.3.5-1.5-.3-1.9-1.4-1-2.9,1.6-2.7,3.1-5.4,4.6-8.1.3-.6.2-1.4.3-2.2-.7.3-1.4.5-2,1-1.3,1-2.4,2.3-3.8,3.2-.6.4-1.9.3-2.3,0-.5-.6-.8-2.1-.4-2.7,2.1-3.2,4.3-6.4,6.7-9.4,2.5-3.2,5.1-6.4,7.9-9.2,1.9-1.9,2.8-4,2.7-6.8,0-.4.3-.8.5-1.2.5-1.4,1.2-2.6,3.1-2,0-.9,0-1.6-.2-2.5-.5.2-.8.3-1.3.6.3-.8.4-1.7.8-2,.6-.4,1.4-.4,2.2-.3.2,0,.5.9.4,1.3-.5,2.2-1.1,4.3-1.6,6.5,0,.4-.2.8,0,1.1,2.3,7.5,4.6,15,6.9,22.5,0,0,.2.2.4.4.6-.6,1.2-1,1.6-1.7,2.9-4.5,5.6-9.2,8.8-13.5,3.8-5.3,6.6-11.5,11.4-16,.7-.7,1.5-1.3,2.4-1.8.4-.2,1.1-.3,1.3,0,.3.3.5,1.1.4,1.5-.5,2-.4,4.3-2.2,5.8-.4.3-.5,1.2-.7,1.9,3.2.7,3.2.8,3.9,4.2.5,2.2,1.3,4.4,1.8,6.6.6,2.4,1.1,4.9,1.7,7.4,0,.2,0,.6,0,.8-1.8,2.5.6,4.1,1,6.1.6,3,2,6,1.2,9.3-.2.8.4,1.8.6,2.8.5,2.6,1.1,5.3,1.3,7.9,0,1.7-2.3,2.6-3.6,1.5-1-.9-1.9-1.8-3.1-2.8,0,.5,0,.9,0,1.2-.2.8-.4,2.1-.8,2.2-.8.2-1.8-.2-2.5-.6-.7-.4-1.3-1.1-2.2-1.7.8,3.4-.8,4.8-3.2,5.4-2.7.7-2.7-2.8-4.6-3.7-.2.4-.3.8-.5,1.2-.9,1.9-1.8,3.8-2.9,5.6-.2.3-1.2.5-1.6.2-.5-.3-.9-1-1-1.6,0-.6.2-1.2.5-1.8.9-2.3,1.7-4.6,2.7-6.8,1.1-2.4.8-4.8.4-7.4-.4.2-.8.3-1.2.5.2-.9.4-1.8.7-2.6.2-.6.7-1.1,1.1-1.6-.2,0-.3-.3-.5-.4-1.1,1.3-2.3,2.7-3.4,4,0,.2.2.3.3.5h1.9-.3ZM474.5,188.2h.5c1.3-3.4,4.8-5.2,5.8-8.9-.8,0-1.4.4-1.8.9-1.6,1.9-3.4,1.8-4.5-.4-1.4-3-2.5-6.1-3.7-9.2-.2-.5-.7-.9-1.1-1.4-.9,2.1-.2,6.7,1,8.1.6.7,1.2,1.6,1.4,2.5.5,1.8.7,3.8,1.2,5.6.2.9.8,1.8,1.2,2.6v.2ZM506.4,181.2l.6-.4c-2.8-4.9-5.6-9.8-8.5-14.8-1.1,2.8-1.1,2.7.5,4.8.7.9,1.3,1.8,1.8,2.8,1.2,2.7,2.2,5.6,3.5,8.2,1,2,2.3,3.8,3.5,5.7.3-.2.6-.3.9-.5-.2-.8-.3-1.6-.7-2.2-.9-1.4-1.9-2.7-2.8-4,0,0,.3-.2.4-.3.2.2.5.5.7.7h0ZM492.2,166c1.8-1.9,3.5-3.8,5.3-5.7-.8-.7-1.7-.6-2.5.4-1.2,1.6-3.4,2.7-2.8,5.3ZM499.2,148.9c-1,1.4-1.8,2.4-2.5,3.4,1,.7,1.7,1.2,2.4,1.7.2,0,.4,0,.6,0,0-1.5-.3-3-.4-5h0ZM464.5,178.5c-.2.8-.5,1.3-.4,1.7,0,.7.3,1.7.8,1.9s1.3-.3,1.9-.5c-.3-.6-.6-1.2-1-1.8-.3-.4-.7-.8-1.3-1.3h0ZM499,156.2h-.5c.4,2.4.8,4.8,1.2,7.3.6-2.6.4-5.1-.8-7.4h0ZM469.5,159.9c-.2-.2-.3-.4-.5-.6-1.4,1.3-2.8,2.6-4.4,4,3,.6,3.5-1.9,4.8-3.4h0ZM489,166.6c-2.1,1.1-2.2,2.1-.4,4.4,0-1.6.2-2.9.4-4.4ZM477,172.9c.6,1.5.9,2.4,1.3,3.3.2,0,.3,0,.5,0,.3-.7.7-1.3,1-2.1l-2.8-1.4h0ZM461.3,192.1c.2-1.3.4-2.5.7-4.2-2,1.4-2.2,2.4-.7,4.2ZM464.2,171.5c-.7,1.6-1.3,2.9-1.8,4.1,1.9.5,2.2,0,1.8-4.1Z"></path><path class="cls-1" d="M501,209.6c.2.6.3.9.4,1.2.8,1.9.3,2.9-1.7,3.2-3.6.5-7.3,1-10.9,1.6-7.9,1.4-15.7,3-23.6,4.4-2.9.5-6,.7-8.9,1.3-3.3.8-6.6,2-9.9,2.8-3.8,1-7.7,1.8-11.6,2.8-1.8.4-3.5,1.3-5.2,1.4-2.2,0-4.1,1.1-6.2,1.6-2.2.5-4.4,1-6.5,1.7-5.5,1.9-10.9,4-16.4,6.1-2.5,1-5.1,2-7.6,2.9-1.4.5-3,.3-4.4.9-6.4,2.4-12.8,4.8-19.2,7.4-4.5,1.8-8.9,3.8-13.3,5.9-2.7,1.3-5.3,3.1-8,4.5-2.9,1.5-6,2.6-8.9,4.2-2.7,1.5-5.2,3.4-7.8,5-2.2,1.3-4.6,2.2-6.9,3.2-.3,0-1-.5-1.4-.9-.4-.5-.5-1.1-.7-1.7-1.7,1.6-3.3,3.1-5,4.4-.3.3-1.4.2-1.5,0-.3-.7-.6-1.7-.3-2.2.7-1.3,1.6-2.6,2.7-3.6,2.8-2.3,6-4.2,8.6-6.7,3.6-3.3,8-4.6,12-7,5.4-3.2,10.6-6.8,16.2-9.5,5.3-2.6,10.5-5.4,16.3-6.7,4.2-.9,8.3-2.2,12.4-3.5,3.2-1,6.3-2.6,9.5-3.5,6.6-1.8,12.8-4.7,19.2-7.2,4-1.6,8.2-2.5,12.2-3.8,2-.7,3.9-1.7,5.9-2.3,5.4-1.5,10.8-3.1,16.2-4.3,5.2-1.2,10.4-2.2,15.6-3s10.4-1.4,15.5-2c4.5-.5,9.1-.9,13.6-1.4,3.8-.4,7.6-1,11.4-1.5,1.3-.2,2.6-.2,4,0,1.2,0,2.1.9,1.9,2.3-.2,1.4-1,1.9-2.3,1.8-.8,0-1.5-.4-2.4.6-.5.5-1.9,0-3.2,0l.2-.4ZM409.6,228.7c15.6-4.1,31.1-8.5,46.3-14-16.1,2.2-31.1,8.3-46.3,14ZM384.6,237.5c-6.9,1.8-14,3.3-20.5,6.7,7.3-.7,13.6-4.7,20.5-6.7ZM486.4,209.4c1.3,2.2,2.1,2.4,4.6,1.2-1.5-.4-2.9-.7-4.6-1.2Z"></path><path class="cls-1" d="M427.8,199.5c-2.1.9-3-.5-3.4-2.9-.5.4-.8,1-1.2,1-.9,0-1.9,0-2.7-.4,0,0,0-1.3,0-1.9.3-.8.8-1.6,1.3-2.3,1.2-1.7,2-3.5,1.9-5.7,0-.9.7-1.8,1.1-2.7,4.8-10.4,9.6-20.8,14.5-31.1.5-1.1,2.1-1.9,3.3-2.2,1.2-.4,1.3,1,1.4,2,.2,2.4.2,4.8.6,7.1.5,3.2,1.4,6.4,1.9,9.6.2,1.2-.4,2.5-.6,3.8,0,.7-.4,1.6,0,2.1,1.4,2.9,3.1,5.5,4.4,8.5.7,1.6,1,3.5,1.2,5.4,0,.8-.7,2.2-1.2,2.3-.8,0-2.1-.4-2.6-1.1-1.3-1.9-2.3-4-3.5-6.1-.2-.3-.4-.6-.7-1.2-.7,3.2.4,5.5,1.9,7.7.3.5.7.9.8,1.5.3,1.4,1.1,2.1,2.4,2.2.5,0,1,.3,1.5.5-1.1,1.7-2.1,3.2-3.1,4.6-.9,1.2-2.7.8-3.6-.8-.5-1-1-2-1.6-3,0-.2-.4-.4-.9-.8-.4,2.3-.9,4.4-1.1,6.5-.2,1.3-.7,2.1-1.8,1.8-.8-.2-1.8-.8-2.1-1.5-.9-2.1-1.2-2.2-2.6-.5-.7.8-3.9,1.6-4.4.8s-.5-1.9-.8-3.1h-.3Z"></path></g><rect class="cls-1" x="333" y="171.4" width="9.4" height="9.4"></rect><rect class="cls-1" x="346.4" y="171.4" width="9.4" height="9.4"></rect><rect class="cls-1" x="346.4" y="184.8" width="9.4" height="9.4"></rect><rect class="cls-1" x="333" y="184.8" width="9.4" height="9.4"></rect></svg>